<svg width="21" height="20" viewBox="0 0 21 20" fill="none" xmlns="http://www.w3.org/2000/svg">
<path d="M2 10L1.29289 9.29289L0.585786 10L1.29289 10.7071L2 10ZM10.2929 0.292893L1.29289 9.29289L2.70711 10.7071L11.7071 1.70711L10.2929 0.292893ZM1.29289 10.7071L10.2929 19.7071L11.7071 18.2929L2.70711 9.29289L1.29289 10.7071Z" fill="#CDBE91"/>
<path d="M11 10L10.2929 9.29289L9.58579 10L10.2929 10.7071L11 10ZM19.2929 0.292893L10.2929 9.29289L11.7071 10.7071L20.7071 1.70711L19.2929 0.292893ZM10.2929 10.7071L19.2929 19.7071L20.7071 18.2929L11.7071 9.29289L10.2929 10.7071Z" fill="#CDBE91"/>
</svg>
