<svg width="217" height="96" viewBox="0 0 217 96" fill="none" xmlns="http://www.w3.org/2000/svg">
<path d="M12.3504 95.0015C8.33868 95.0015 5.29051 94.0205 3.1708 92.0409C1.05109 90.0788 0 86.8905 0 82.4934C0 79.4628 0.472992 77.0278 1.41898 75.1708C2.36496 73.3139 3.76642 71.965 5.60584 71.1241C7.44525 70.2832 9.68759 69.8628 12.3504 69.8628C14.9956 69.8628 17.2555 70.2832 19.0949 71.1241C20.9343 71.965 22.3358 73.3139 23.2817 75.1708C24.2277 77.0278 24.7007 79.4628 24.7007 82.4934C24.7007 86.8905 23.6321 90.0613 21.5124 92.0409C19.3752 94.0029 16.327 95.0015 12.3504 95.0015ZM12.3504 88.9402C14.1547 88.9402 15.4511 88.4321 16.2744 87.3986C17.0803 86.3825 17.5007 84.7358 17.5007 82.4934C17.5007 80.0934 17.0978 78.3942 16.2744 77.3956C15.4686 76.3971 14.1547 75.9066 12.3504 75.9066C10.546 75.9066 9.23211 76.3971 8.42627 77.3956C7.62043 78.3942 7.2 80.0934 7.2 82.4934C7.2 84.7358 7.60292 86.365 8.42627 87.3986C9.23211 88.4321 10.546 88.9402 12.3504 88.9402Z" fill="#CDBE91"/>
<path d="M35.8423 94.6161V70.2307H48.4204C50.3999 70.2307 52.0116 70.5986 53.2905 71.3344C54.5518 72.0701 55.4977 73.0862 56.1284 74.3825C56.7591 75.6789 57.0744 77.1855 57.0744 78.9022C57.0744 80.549 56.6715 81.9855 55.8481 83.2292C55.0423 84.473 53.9561 85.4365 52.6072 86.0847C52.8875 86.3125 53.1153 86.5752 53.3255 86.8906C53.5182 87.2059 53.7459 87.6438 54.0087 88.2044L56.7941 94.5986H49.4364L46.8788 88.73C46.6861 88.2745 46.4408 87.9592 46.143 87.7665C45.8627 87.5738 45.4423 87.4862 44.9167 87.4862H42.9197V94.5986H35.8423V94.6161ZM42.9021 82.0555H46.616C47.6496 82.0555 48.4379 81.7927 48.9985 81.2497C49.5591 80.7066 49.8394 79.9358 49.8394 78.9198C49.8394 76.7825 48.8408 75.6964 46.8437 75.6964H42.9021V82.0555V82.0555Z" fill="#CDBE91"/>
<path d="M67.1475 94.6161L76.4146 70.2307H83.8774L93.1445 94.6161H85.7869L83.7548 89.4307H76.4672L74.4701 94.6161H67.1475ZM77.4307 84.3154H82.8438L80.146 77.1679L77.4307 84.3154Z" fill="#CDBE91"/>
<path d="M115.147 95.0015C110.768 95.0015 107.422 93.9153 105.127 91.7431C102.832 89.5708 101.676 86.5051 101.676 82.546C101.676 78.4643 102.797 75.3285 105.057 73.1387C107.317 70.9489 110.663 69.8628 115.112 69.8628C116.619 69.8628 117.95 69.9679 119.124 70.1956C120.298 70.4234 121.419 70.7387 122.505 71.1416V77.3431C120.35 76.3796 118.055 75.9066 115.603 75.9066C113.325 75.9066 111.644 76.4321 110.54 77.4832C109.436 78.5343 108.893 80.2161 108.893 82.5285C108.893 84.8059 109.471 86.4351 110.645 87.4336C111.801 88.4321 113.483 88.9226 115.69 88.9226C116.899 88.9226 118.055 88.8175 119.194 88.5898C120.333 88.3621 121.471 88.0117 122.593 87.5212V93.7752C121.524 94.1606 120.385 94.4584 119.194 94.6686C118.003 94.8788 116.654 95.0015 115.147 95.0015Z" fill="#CDBE91"/>
<path d="M145.016 95.0015C142.756 95.0015 140.777 94.6336 139.06 93.8803C137.343 93.1446 135.994 92.0409 135.031 90.5869C134.05 89.1329 133.559 87.346 133.559 85.2263V70.2307H140.619V84.4555C140.619 87.4336 142.09 88.9227 145.016 88.9227C146.417 88.9227 147.486 88.5548 148.239 87.819C148.993 87.0833 149.361 85.9621 149.361 84.4555V70.2307H156.438V85.2263C156.438 87.346 155.947 89.1329 154.984 90.5869C154.02 92.0409 152.689 93.1446 150.972 93.8803C149.255 94.6161 147.276 95.0015 145.016 95.0015Z" fill="#CDBE91"/>
<path d="M168.28 94.6161V70.2307H175.34V89.1504H186.219V94.5986H168.28V94.6161Z" fill="#CDBE91"/>
<path d="M204.473 95.0015C200.461 95.0015 197.413 94.0205 195.293 92.0409C193.174 90.0788 192.123 86.8905 192.123 82.4934C192.123 79.4628 192.596 77.0278 193.542 75.1708C194.488 73.3139 195.889 71.965 197.728 71.1241C199.568 70.2832 201.81 69.8628 204.473 69.8628C207.118 69.8628 209.378 70.2832 211.217 71.1241C213.057 71.965 214.458 73.3139 215.404 75.1708C216.35 77.0278 216.823 79.4628 216.823 82.4934C216.823 86.8905 215.755 90.0613 213.635 92.0409C211.498 94.0029 208.45 95.0015 204.473 95.0015ZM204.473 88.9402C206.277 88.9402 207.574 88.4321 208.397 87.3986C209.203 86.3825 209.623 84.7358 209.623 82.4934C209.623 80.0934 209.22 78.3942 208.397 77.3956C207.591 76.3971 206.277 75.9066 204.473 75.9066C202.669 75.9066 201.355 76.3971 200.549 77.3956C199.743 78.3942 199.323 80.0934 199.323 82.4934C199.323 84.7358 199.725 86.365 200.549 87.3986C201.355 88.4321 202.669 88.9402 204.473 88.9402Z" fill="#CDBE91"/>
<path d="M97.7341 51.7139C101.22 51.4511 104.829 51.311 108.508 51.311C112.187 51.311 115.795 51.4511 119.282 51.7139C122.102 48.9285 123.854 45.057 123.854 40.7825C123.854 32.3037 116.987 25.4365 108.508 25.4365C100.029 25.4365 93.1619 32.3037 93.1619 40.7825C93.1619 45.057 94.9137 48.9285 97.7341 51.7139Z" fill="#CDBE91"/>
<path d="M60.6656 61.1912C65.8335 58.2832 72.5955 55.8832 80.4437 54.1664C78.4992 50.1022 77.413 45.5649 77.413 40.7649C77.413 23.5971 91.34 9.67007 108.508 9.67007C125.676 9.67007 139.603 23.5971 139.603 40.7649C139.603 45.5649 138.517 50.1022 136.572 54.1664C145.244 56.0584 152.584 58.8087 157.927 62.1197C163.778 56.6014 167.474 50.3825 167.474 44.1284C167.474 25.1912 133.769 0 108.508 0C83.2466 0 49.5415 21.8452 49.5415 40.7825C49.5415 47.5971 53.9035 54.7795 60.6656 61.1912Z" fill="#CDBE91"/>
</svg>
