<svg width="277" height="512" viewBox="0 0 277 512" fill="none" xmlns="http://www.w3.org/2000/svg" xmlns:xlink="http://www.w3.org/1999/xlink">
<g filter="url(#filter0_d)">
<path d="M87.1152 398.66V402H85.9902V393.469H89.1367C90.0703 393.469 90.8008 393.707 91.3281 394.184C91.8594 394.66 92.125 395.291 92.125 396.076C92.125 396.904 91.8652 397.543 91.3457 397.992C90.8301 398.438 90.0898 398.66 89.125 398.66H87.1152ZM87.1152 397.74H89.1367C89.7383 397.74 90.1992 397.6 90.5195 397.318C90.8398 397.033 91 396.623 91 396.088C91 395.58 90.8398 395.174 90.5195 394.869C90.1992 394.564 89.7598 394.406 89.2012 394.395H87.1152V397.74ZM100.123 398.01C100.123 398.846 99.9824 399.576 99.7012 400.201C99.4199 400.822 99.0215 401.297 98.5059 401.625C97.9902 401.953 97.3887 402.117 96.7012 402.117C96.0293 402.117 95.4336 401.953 94.9141 401.625C94.3945 401.293 93.9902 400.822 93.7012 400.213C93.416 399.6 93.2695 398.891 93.2617 398.086V397.471C93.2617 396.65 93.4043 395.926 93.6895 395.297C93.9746 394.668 94.377 394.188 94.8965 393.855C95.4199 393.52 96.0176 393.352 96.6895 393.352C97.373 393.352 97.9746 393.518 98.4941 393.85C99.0176 394.178 99.4199 394.656 99.7012 395.285C99.9824 395.91 100.123 396.639 100.123 397.471V398.01ZM99.0039 397.459C99.0039 396.447 98.8008 395.672 98.3945 395.133C97.9883 394.59 97.4199 394.318 96.6895 394.318C95.9785 394.318 95.418 394.59 95.0078 395.133C94.6016 395.672 94.3926 396.422 94.3809 397.383V398.01C94.3809 398.99 94.5859 399.762 94.9961 400.324C95.4102 400.883 95.9785 401.162 96.7012 401.162C97.4277 401.162 97.9902 400.898 98.3887 400.371C98.7871 399.84 98.9922 399.08 99.0039 398.092V397.459ZM104.324 398.197C103.359 397.92 102.656 397.58 102.215 397.178C101.777 396.771 101.559 396.271 101.559 395.678C101.559 395.006 101.826 394.451 102.361 394.014C102.9 393.572 103.6 393.352 104.459 393.352C105.045 393.352 105.566 393.465 106.023 393.691C106.484 393.918 106.84 394.23 107.09 394.629C107.344 395.027 107.471 395.463 107.471 395.936H106.34C106.34 395.42 106.176 395.016 105.848 394.723C105.52 394.426 105.057 394.277 104.459 394.277C103.904 394.277 103.471 394.4 103.158 394.646C102.85 394.889 102.695 395.227 102.695 395.66C102.695 396.008 102.842 396.303 103.135 396.545C103.432 396.783 103.934 397.002 104.641 397.201C105.352 397.4 105.906 397.621 106.305 397.863C106.707 398.102 107.004 398.381 107.195 398.701C107.391 399.021 107.488 399.398 107.488 399.832C107.488 400.523 107.219 401.078 106.68 401.496C106.141 401.91 105.42 402.117 104.518 402.117C103.932 402.117 103.385 402.006 102.877 401.783C102.369 401.557 101.977 401.248 101.699 400.857C101.426 400.467 101.289 400.023 101.289 399.527H102.42C102.42 400.043 102.609 400.451 102.988 400.752C103.371 401.049 103.881 401.197 104.518 401.197C105.111 401.197 105.566 401.076 105.883 400.834C106.199 400.592 106.357 400.262 106.357 399.844C106.357 399.426 106.211 399.104 105.918 398.877C105.625 398.646 105.094 398.42 104.324 398.197ZM110.143 402H109.018V393.469H110.143V402ZM118.48 399.293C118.375 400.195 118.041 400.893 117.479 401.385C116.92 401.873 116.176 402.117 115.246 402.117C114.238 402.117 113.43 401.756 112.82 401.033C112.215 400.311 111.912 399.344 111.912 398.133V397.312C111.912 396.52 112.053 395.822 112.334 395.221C112.619 394.619 113.021 394.158 113.541 393.838C114.061 393.514 114.662 393.352 115.346 393.352C116.252 393.352 116.979 393.605 117.525 394.113C118.072 394.617 118.391 395.316 118.48 396.211H117.35C117.252 395.531 117.039 395.039 116.711 394.734C116.387 394.43 115.932 394.277 115.346 394.277C114.627 394.277 114.062 394.543 113.652 395.074C113.246 395.605 113.043 396.361 113.043 397.342V398.168C113.043 399.094 113.236 399.83 113.623 400.377C114.01 400.924 114.551 401.197 115.246 401.197C115.871 401.197 116.35 401.057 116.682 400.775C117.018 400.49 117.24 399.996 117.35 399.293H118.48ZM115.615 402.053L115.545 402.357C116.143 402.463 116.441 402.801 116.441 403.371C116.441 403.75 116.285 404.049 115.973 404.268C115.66 404.49 115.225 404.602 114.666 404.602L114.625 403.975C114.934 403.975 115.172 403.924 115.34 403.822C115.512 403.721 115.598 403.578 115.598 403.395C115.598 403.223 115.535 403.096 115.41 403.014C115.285 402.932 115.031 402.873 114.648 402.838L114.836 402.053H115.615ZM124.732 399.773H121.158L120.355 402H119.195L122.453 393.469H123.438L126.701 402H125.547L124.732 399.773ZM121.498 398.848H124.398L122.945 394.857L121.498 398.848ZM125.049 391.371C125.049 391.793 124.928 392.135 124.686 392.396C124.447 392.658 124.148 392.789 123.789 392.789C123.629 392.789 123.49 392.77 123.373 392.73C123.256 392.691 123.102 392.611 122.91 392.49C122.723 392.369 122.586 392.297 122.5 392.273C122.418 392.246 122.322 392.232 122.213 392.232C122.053 392.232 121.916 392.295 121.803 392.42C121.689 392.541 121.633 392.697 121.633 392.889L120.906 392.848C120.906 392.43 121.023 392.084 121.258 391.811C121.496 391.537 121.797 391.4 122.16 391.4C122.297 391.4 122.42 391.42 122.529 391.459C122.639 391.498 122.787 391.574 122.975 391.688C123.162 391.801 123.305 391.875 123.402 391.91C123.504 391.945 123.615 391.963 123.736 391.963C123.904 391.963 124.043 391.896 124.152 391.764C124.266 391.631 124.322 391.477 124.322 391.301L125.049 391.371ZM134.342 398.01C134.342 398.846 134.201 399.576 133.92 400.201C133.639 400.822 133.24 401.297 132.725 401.625C132.209 401.953 131.607 402.117 130.92 402.117C130.248 402.117 129.652 401.953 129.133 401.625C128.613 401.293 128.209 400.822 127.92 400.213C127.635 399.6 127.488 398.891 127.48 398.086V397.471C127.48 396.65 127.623 395.926 127.908 395.297C128.193 394.668 128.596 394.188 129.115 393.855C129.639 393.52 130.236 393.352 130.908 393.352C131.592 393.352 132.193 393.518 132.713 393.85C133.236 394.178 133.639 394.656 133.92 395.285C134.201 395.91 134.342 396.639 134.342 397.471V398.01ZM133.223 397.459C133.223 396.447 133.02 395.672 132.613 395.133C132.207 394.59 131.639 394.318 130.908 394.318C130.197 394.318 129.637 394.59 129.227 395.133C128.82 395.672 128.611 396.422 128.6 397.383V398.01C128.6 398.99 128.805 399.762 129.215 400.324C129.629 400.883 130.197 401.162 130.92 401.162C131.646 401.162 132.209 400.898 132.607 400.371C133.006 399.84 133.211 399.08 133.223 398.092V397.459ZM143.717 399.773H140.143L139.34 402H138.18L141.438 393.469H142.422L145.686 402H144.531L143.717 399.773ZM140.482 398.848H143.383L141.93 394.857L140.482 398.848ZM151.967 394.395H149.225V402H148.105V394.395H145.369V393.469H151.967V394.395ZM159.238 393.469V399.27C159.234 400.074 158.98 400.732 158.477 401.244C157.977 401.756 157.297 402.043 156.438 402.105L156.139 402.117C155.205 402.117 154.461 401.865 153.906 401.361C153.352 400.857 153.07 400.164 153.062 399.281V393.469H154.176V399.246C154.176 399.863 154.346 400.344 154.686 400.688C155.025 401.027 155.51 401.197 156.139 401.197C156.775 401.197 157.262 401.027 157.598 400.688C157.938 400.348 158.107 399.869 158.107 399.252V393.469H159.238ZM165.596 399.773H162.021L161.219 402H160.059L163.316 393.469H164.301L167.564 402H166.41L165.596 399.773ZM162.361 398.848H165.262L163.809 394.857L162.361 398.848ZM169.844 401.08H173.887V402H168.713V393.469H169.844V401.08ZM181.428 402H180.338V394.775L178.152 395.578V394.594L181.258 393.428H181.428V402ZM184.68 403.699L184.064 403.277C184.432 402.766 184.623 402.238 184.639 401.695V400.717H185.699V401.566C185.699 401.961 185.602 402.355 185.406 402.75C185.215 403.145 184.973 403.461 184.68 403.699ZM187.457 397.723L187.891 393.469H192.262V394.471H188.811L188.553 396.797C188.971 396.551 189.445 396.428 189.977 396.428C190.754 396.428 191.371 396.686 191.828 397.201C192.285 397.713 192.514 398.406 192.514 399.281C192.514 400.16 192.275 400.854 191.799 401.361C191.326 401.865 190.664 402.117 189.812 402.117C189.059 402.117 188.443 401.908 187.967 401.49C187.49 401.072 187.219 400.494 187.152 399.756H188.178C188.244 400.244 188.418 400.613 188.699 400.863C188.98 401.109 189.352 401.232 189.812 401.232C190.316 401.232 190.711 401.061 190.996 400.717C191.285 400.373 191.43 399.898 191.43 399.293C191.43 398.723 191.273 398.266 190.961 397.922C190.652 397.574 190.24 397.4 189.725 397.4C189.252 397.4 188.881 397.504 188.611 397.711L188.324 397.945L187.457 397.723ZM197.852 398.25C197.625 398.52 197.354 398.736 197.037 398.9C196.725 399.064 196.381 399.146 196.006 399.146C195.514 399.146 195.084 399.025 194.717 398.783C194.354 398.541 194.072 398.201 193.873 397.764C193.674 397.322 193.574 396.836 193.574 396.305C193.574 395.734 193.682 395.221 193.896 394.764C194.115 394.307 194.424 393.957 194.822 393.715C195.221 393.473 195.686 393.352 196.217 393.352C197.061 393.352 197.725 393.668 198.209 394.301C198.697 394.93 198.941 395.789 198.941 396.879V397.195C198.941 398.855 198.613 400.068 197.957 400.834C197.301 401.596 196.311 401.986 194.986 402.006H194.775V401.092H195.004C195.898 401.076 196.586 400.844 197.066 400.395C197.547 399.941 197.809 399.227 197.852 398.25ZM196.182 398.25C196.545 398.25 196.879 398.139 197.184 397.916C197.492 397.693 197.717 397.418 197.857 397.09V396.656C197.857 395.945 197.703 395.367 197.395 394.922C197.086 394.477 196.695 394.254 196.223 394.254C195.746 394.254 195.363 394.438 195.074 394.805C194.785 395.168 194.641 395.648 194.641 396.246C194.641 396.828 194.779 397.309 195.057 397.688C195.338 398.062 195.713 398.25 196.182 398.25ZM206.025 402H200.436V401.221L203.389 397.939C203.826 397.443 204.127 397.041 204.291 396.732C204.459 396.42 204.543 396.098 204.543 395.766C204.543 395.32 204.408 394.955 204.139 394.67C203.869 394.385 203.51 394.242 203.061 394.242C202.521 394.242 202.102 394.396 201.801 394.705C201.504 395.01 201.355 395.436 201.355 395.982H200.271C200.271 395.197 200.523 394.562 201.027 394.078C201.535 393.594 202.213 393.352 203.061 393.352C203.854 393.352 204.48 393.561 204.941 393.979C205.402 394.393 205.633 394.945 205.633 395.637C205.633 396.477 205.098 397.477 204.027 398.637L201.742 401.115H206.025V402ZM207.25 403.699L206.635 403.277C207.002 402.766 207.193 402.238 207.209 401.695V400.717H208.27V401.566C208.27 401.961 208.172 402.355 207.977 402.75C207.785 403.145 207.543 403.461 207.25 403.699ZM213.092 402H212.002V394.775L209.816 395.578V394.594L212.922 393.428H213.092V402ZM219.83 402H218.74V394.775L216.555 395.578V394.594L219.66 393.428H219.83V402ZM223.504 397.723L223.938 393.469H228.309V394.471H224.857L224.6 396.797C225.018 396.551 225.492 396.428 226.023 396.428C226.801 396.428 227.418 396.686 227.875 397.201C228.332 397.713 228.561 398.406 228.561 399.281C228.561 400.16 228.322 400.854 227.846 401.361C227.373 401.865 226.711 402.117 225.859 402.117C225.105 402.117 224.49 401.908 224.014 401.49C223.537 401.072 223.266 400.494 223.199 399.756H224.225C224.291 400.244 224.465 400.613 224.746 400.863C225.027 401.109 225.398 401.232 225.859 401.232C226.363 401.232 226.758 401.061 227.043 400.717C227.332 400.373 227.477 399.898 227.477 399.293C227.477 398.723 227.32 398.266 227.008 397.922C226.699 397.574 226.287 397.4 225.771 397.4C225.299 397.4 224.928 397.504 224.658 397.711L224.371 397.945L223.504 397.723Z" fill="white"/>
<path fill-rule="evenodd" clip-rule="evenodd" d="M270 0H4V400.598V400.836H4.24726L64.8857 459.347C81.4744 435.445 106.844 420.163 135.276 420.163C164.4 420.163 190.31 436.197 206.861 461.105L269.322 400.836H270V0Z" fill="url(#paint0_linear)"/>
<path fill-rule="evenodd" clip-rule="evenodd" d="M270 0H4V400.598V400.836H4.24726L64.8857 459.347C81.4744 435.445 106.844 420.163 135.276 420.163C164.4 420.163 190.31 436.197 206.861 461.105L269.322 400.836H270V0Z" fill="url(#paint1_linear)"/>
<path opacity="0.5" fill-rule="evenodd" clip-rule="evenodd" d="M270 0H4V400.598V400.836H4.24726L64.8857 459.347C81.4744 435.445 106.844 420.163 135.276 420.163C164.4 420.163 190.31 436.197 206.861 461.105L269.322 400.836H270V0Z" fill="url(#paint2_linear)"/>
<path fill-rule="evenodd" clip-rule="evenodd" d="M273 0H7V400.598V400.836H7.24726L67.8857 459.347C84.4744 435.445 109.844 420.163 138.276 420.163C167.4 420.163 193.31 436.197 209.861 461.105L272.322 400.836H273V0Z" fill="url(#paint3_linear)" fill-opacity="0.5"/>
</g>
<rect x="2" y="384" width="270" height="127.895" fill="url(#pattern0)"/>
<defs>
<filter id="filter0_d" x="0" y="0" width="277" height="469.105" filterUnits="userSpaceOnUse" color-interpolation-filters="sRGB">
<feFlood flood-opacity="0" result="BackgroundImageFix"/>
<feColorMatrix in="SourceAlpha" type="matrix" values="0 0 0 0 0 0 0 0 0 0 0 0 0 0 0 0 0 0 127 0"/>
<feOffset dy="4"/>
<feGaussianBlur stdDeviation="2"/>
<feColorMatrix type="matrix" values="0 0 0 0 0 0 0 0 0 0 0 0 0 0 0 0 0 0 0.25 0"/>
<feBlend mode="normal" in2="BackgroundImageFix" result="effect1_dropShadow"/>
<feBlend mode="normal" in="SourceGraphic" in2="effect1_dropShadow" result="shape"/>
</filter>
<pattern id="pattern0" patternContentUnits="objectBoundingBox" width="1" height="1">
<use xlink:href="#image0" transform="translate(0 -0.0277778) scale(0.0025 0.00527778)"/>
</pattern>
<linearGradient id="paint0_linear" x1="137" y1="360.276" x2="137" y2="-14.7928" gradientUnits="userSpaceOnUse">
<stop stop-color="#232D37"/>
<stop offset="0.333333" stop-color="#6C737A" stop-opacity="0.666667"/>
<stop offset="1" stop-color="white" stop-opacity="0"/>
<stop offset="1" stop-color="#232D37" stop-opacity="0"/>
</linearGradient>
<linearGradient id="paint1_linear" x1="146.5" y1="31.9715" x2="137.847" y2="371.75" gradientUnits="userSpaceOnUse">
<stop stop-color="#1F2229"/>
<stop offset="1" stop-color="#232D37" stop-opacity="0"/>
</linearGradient>
<linearGradient id="paint2_linear" x1="468" y1="371.728" x2="137" y2="371.728" gradientUnits="userSpaceOnUse">
<stop stop-color="#1F2229"/>
<stop offset="0.623796" stop-color="#1F232A" stop-opacity="0.895045"/>
<stop offset="1" stop-color="#232D37" stop-opacity="0"/>
</linearGradient>
<linearGradient id="paint3_linear" x1="98.5" y1="371.728" x2="-31.5" y2="371.728" gradientUnits="userSpaceOnUse">
<stop stop-color="#232D37" stop-opacity="0"/>
<stop offset="0.503882" stop-color="#1F232A" stop-opacity="0.895045"/>
<stop offset="1" stop-color="#1F2229"/>
</linearGradient>
</defs>
</svg>
